<svg xmlns="http://www.w3.org/2000/svg" viewBox="0 0 900 600">
  <!-- Título -->
  <text x="450" y="40" font-family="Arial" font-size="24" font-weight="bold" text-anchor="middle">Evolução da Taxa de Abandono Escolar</text>
  <text x="450" y="70" font-family="Arial" font-size="16" text-anchor="middle">Ensino Médio - Brasil</text>
  
  <!-- Eixos -->
  <line x1="100" y1="500" x2="800" y2="500" stroke="black" stroke-width="2"/>
  <line x1="100" y1="500" x2="100" y2="100" stroke="black" stroke-width="2"/>
  
  <!-- Eixo Y: Rótulos -->
  <text x="95" y="500" font-family="Arial" font-size="14" text-anchor="end">0%</text>
  <text x="95" y="425" font-family="Arial" font-size="14" text-anchor="end">5%</text>
  <text x="95" y="350" font-family="Arial" font-size="14" text-anchor="end">10%</text>
  <text x="95" y="275" font-family="Arial" font-size="14" text-anchor="end">15%</text>
  <text x="95" y="200" font-family="Arial" font-size="14" text-anchor="end">20%</text>
  <text x="95" y="125" font-family="Arial" font-size="14" text-anchor="end">25%</text>
  
  <!-- Linhas de grade horizontais -->
  <line x1="100" y1="500" x2="800" y2="500" stroke="#e0e0e0" stroke-width="1"/>
  <line x1="100" y1="425" x2="800" y2="425" stroke="#e0e0e0" stroke-width="1"/>
  <line x1="100" y1="350" x2="800" y2="350" stroke="#e0e0e0" stroke-width="1"/>
  <line x1="100" y1="275" x2="800" y2="275" stroke="#e0e0e0" stroke-width="1"/>
  <line x1="100" y1="200" x2="800" y2="200" stroke="#e0e0e0" stroke-width="1"/>
  <line x1="100" y1="125" x2="800" y2="125" stroke="#e0e0e0" stroke-width="1"/>
  
  <!-- Eixo X: Rótulos -->
  <text x="170" y="520" font-family="Arial" font-size="14" text-anchor="middle">2020</text>
  <text x="310" y="520" font-family="Arial" font-size="14" text-anchor="middle">2021</text>
  <text x="450" y="520" font-family="Arial" font-size="14" text-anchor="middle">2022</text>
  <text x="590" y="520" font-family="Arial" font-size="14" text-anchor="middle">2023</text>
  <text x="730" y="520" font-family="Arial" font-size="14" text-anchor="middle">2024</text>
  
  <!-- Linhas de Tendência para Regiões -->
  <!-- Brasil -->
  <polyline points="170,297 310,283 450,332 590,268 730,248" fill="none" stroke="#de2d26" stroke-width="4"/>
  
  <!-- Norte -->
  <polyline points="170,178 310,190 450,220 590,200 730,178" fill="none" stroke="#a50f15" stroke-width="2"/>
  
  <!-- Nordeste -->
  <polyline points="170,158 310,172 450,210 590,185 730,183" fill="none" stroke="#fb6a4a" stroke-width="2"/>
  
  <!-- Centro-Oeste -->
  <polyline points="170,275 310,265 450,305 590,260 730,250" fill="none" stroke="#fc9272" stroke-width="2"/>
  
  <!-- Sudeste -->
  <polyline points="170,335 310,325 450,360 590,310 730,293" fill="none" stroke="#fcbba1" stroke-width="2"/>
  
  <!-- Sul -->
  <polyline points="170,360 310,348 450,385 590,338 730,332" fill="none" stroke="#fee5d9" stroke-width="2"/>
  
  <!-- Pontos nos dados -->
  <!-- Brasil -->
  <circle cx="170" cy="297" r="6" fill="#de2d26"/>
  <circle cx="310" cy="283" r="6" fill="#de2d26"/>
  <circle cx="450" cy="332" r="6" fill="#de2d26"/>
  <circle cx="590" cy="268" r="6" fill="#de2d26"/>
  <circle cx="730" cy="248" r="6" fill="#de2d26"/>
  
  <!-- Rótulos de valores na linha principal -->
  <text x="170" y="282" font-family="Arial" font-size="12" text-anchor="middle" font-weight="bold">17.2%</text>
  <text x="310" y="268" font-family="Arial" font-size="12" text-anchor="middle" font-weight="bold">16.5%</text>
  <text x="450" y="317" font-family="Arial" font-size="12" text-anchor="middle" font-weight="bold">19.0%</text>
  <text x="590" y="253" font-family="Arial" font-size="12" text-anchor="middle" font-weight="bold">15.1%</text>
  <text x="730" y="233" font-family="Arial" font-size="12" text-anchor="middle" font-weight="bold">13.9%</text>
  
  <!-- Legenda -->
  <rect x="630" y="110" width="160" height="150" fill="white" stroke="#cccccc" stroke-width="1"/>
  <text x="640" y="130" font-family="Arial" font-size="14" font-weight="bold">Regiões</text>
  
  <line x1="640" y1="150" x2="660" y2="150" stroke="#de2d26" stroke-width="4"/>
  <text x="670" y="155" font-family="Arial" font-size="12">Brasil</text>
  
  <line x1="640" y1="170" x2="660" y2="170" stroke="#a50f15" stroke-width="2"/>
  <text x="670" y="175" font-family="Arial" font-size="12">Norte</text>
  
  <line x1="640" y1="190" x2="660" y2="190" stroke="#fb6a4a" stroke-width="2"/>
  <text x="670" y="195" font-family="Arial" font-size="12">Nordeste</text>
  
  <line x1="640" y1="210" x2="660" y2="210" stroke="#fc9272" stroke-width="2"/>
  <text x="670" y="215" font-family="Arial" font-size="12">Centro-Oeste</text>
  
  <line x1="640" y1="230" x2="660" y2="230" stroke="#fcbba1" stroke-width="2"/>
  <text x="670" y="235" font-family="Arial" font-size="12">Sudeste</text>
  
  <line x1="640" y1="250" x2="660" y2="250" stroke="#fee5d9" stroke-width="2"/>
  <text x="670" y="255" font-family="Arial" font-size="12">Sul</text>
  
  <!-- Título dos eixos -->
  <text x="450" y="550" font-family="Arial" font-size="16" text-anchor="middle">Ano</text>
  <text x="40" y="300" font-family="Arial" font-size="16" text-anchor="middle" transform="rotate(-90, 40, 300)">Taxa de Abandono (%)</text>
  
  <!-- Fonte da informação -->
  <text x="450" y="580" font-family="Arial" font-size="12" text-anchor="middle" fill="#666666">Projeto: Análise Multidimensional do Abandono Escolar no Ensino Médio Brasileiro</text>
</svg>